<svg width="33" height="33" viewBox="0 0 33 33" fill="none" xmlns="http://www.w3.org/2000/svg">
<path d="M31.4541 15.8501C31.4116 15.7526 30.3716 13.4464 28.0491 11.1239C25.8941 8.97137 22.1916 6.40387 16.7691 6.40387C11.3466 6.40387 7.6441 8.97137 5.4891 11.1239C3.1666 13.4464 2.1266 15.7489 2.0841 15.8501C2.04137 15.9461 2.01929 16.05 2.01929 16.1551C2.01929 16.2602 2.04137 16.3641 2.0841 16.4601C2.1266 16.5564 3.1666 18.8626 5.4891 21.1851C7.6441 23.3376 11.3466 25.9039 16.7691 25.9039C22.1916 25.9039 25.8941 23.3376 28.0491 21.1851C30.3716 18.8626 31.4116 16.5601 31.4541 16.4601C31.4968 16.3641 31.5189 16.2602 31.5189 16.1551C31.5189 16.05 31.4968 15.9461 31.4541 15.8501ZM16.7691 24.4039C12.8466 24.4039 9.4216 22.9764 6.58785 20.1626C5.39995 18.9821 4.39473 17.6309 3.60535 16.1539C4.3945 14.677 5.39975 13.3263 6.58785 12.1464C9.4216 9.33137 12.8466 7.90387 16.7691 7.90387C20.6916 7.90387 24.1166 9.33137 26.9504 12.1464C28.1385 13.3263 29.1437 14.677 29.9329 16.1539C29.1366 17.6801 25.1441 24.4039 16.7691 24.4039ZM16.7691 10.4039C15.6319 10.4039 14.5202 10.7411 13.5746 11.3729C12.629 12.0047 11.892 12.9028 11.4568 13.9534C11.0216 15.0041 10.9077 16.1602 11.1296 17.2756C11.3515 18.391 11.8991 19.4156 12.7032 20.2197C13.5074 21.0239 14.5319 21.5715 15.6473 21.7934C16.7627 22.0152 17.9189 21.9014 18.9695 21.4662C20.0202 21.031 20.9182 20.294 21.5501 19.3484C22.1819 18.4028 22.5191 17.2911 22.5191 16.1539C22.5171 14.6295 21.9107 13.1681 20.8328 12.0902C19.7549 11.0123 18.2935 10.4059 16.7691 10.4039ZM16.7691 20.4039C15.9285 20.4039 15.1068 20.1546 14.4079 19.6876C13.709 19.2206 13.1643 18.5569 12.8426 17.7803C12.5209 17.0037 12.4368 16.1492 12.6008 15.3247C12.7648 14.5003 13.1695 13.743 13.7639 13.1487C14.3583 12.5543 15.1156 12.1495 15.94 11.9855C16.7644 11.8215 17.6189 11.9057 18.3955 12.2274C19.1721 12.5491 19.8359 13.0938 20.3029 13.7927C20.7698 14.4916 21.0191 15.3133 21.0191 16.1539C21.0191 17.281 20.5713 18.362 19.7743 19.1591C18.9773 19.9561 17.8963 20.4039 16.7691 20.4039Z" fill="black"/>
</svg>
