<svg width="33" height="33" viewBox="0 0 33 33" fill="none" xmlns="http://www.w3.org/2000/svg">
<path d="M29.923 16.6923C29.919 19.8696 28.7532 22.9357 26.6454 25.3131C24.5376 27.6905 21.6332 29.2152 18.4793 29.5998C18.4091 29.6078 18.3379 29.6007 18.2706 29.5792C18.2033 29.5577 18.1413 29.5221 18.0888 29.4748C18.0362 29.4276 17.9943 29.3697 17.9657 29.3051C17.9371 29.2405 17.9226 29.1705 17.923 29.0998V19.6923H20.923C21.0601 19.6926 21.1958 19.6647 21.3217 19.6104C21.4475 19.556 21.5609 19.4764 21.6546 19.3764C21.7484 19.2764 21.8206 19.1582 21.8668 19.0291C21.913 18.9001 21.9321 18.7629 21.923 18.6261C21.9009 18.3689 21.7823 18.1297 21.591 17.9564C21.3997 17.7832 21.1499 17.6888 20.8918 17.6923H17.923V14.6923C17.923 14.1619 18.1338 13.6532 18.5088 13.2781C18.8839 12.903 19.3926 12.6923 19.923 12.6923H21.923C22.0601 12.6926 22.1958 12.6647 22.3217 12.6104C22.4475 12.556 22.5609 12.4764 22.6546 12.3764C22.7484 12.2764 22.8206 12.1582 22.8668 12.0291C22.913 11.9001 22.9321 11.7629 22.923 11.6261C22.9009 11.3685 22.7819 11.1289 22.5901 10.9556C22.3982 10.7823 22.1478 10.6882 21.8893 10.6923H19.923C18.8622 10.6923 17.8448 11.1137 17.0946 11.8639C16.3445 12.614 15.923 13.6315 15.923 14.6923V17.6923H12.923C12.786 17.692 12.6503 17.7199 12.5244 17.7743C12.3986 17.8286 12.2852 17.9082 12.1914 18.0082C12.0977 18.1082 12.0254 18.2264 11.9793 18.3555C11.9331 18.4846 11.914 18.6218 11.923 18.7586C11.9452 19.0162 12.0641 19.2558 12.256 19.4291C12.4479 19.6024 12.6983 19.6964 12.9568 19.6923H15.923V29.1023C15.9235 29.1729 15.909 29.2427 15.8805 29.3073C15.852 29.3718 15.8101 29.4296 15.7577 29.4768C15.7053 29.5241 15.6435 29.5597 15.5763 29.5813C15.5091 29.6029 15.4382 29.6101 15.368 29.6023C12.1297 29.208 9.15749 27.6122 7.03963 25.1309C4.92177 22.6496 3.81264 19.4636 3.93179 16.2036C4.18179 9.45357 9.64929 3.96607 16.4043 3.70357C18.1532 3.63583 19.8977 3.92151 21.5336 4.54353C23.1695 5.16554 24.6632 6.11112 25.9252 7.32369C27.1873 8.53626 28.1918 9.99092 28.8787 11.6007C29.5656 13.2104 29.9208 14.9421 29.923 16.6923Z" fill="black"/>
</svg>
