<svg width="33" height="33" viewBox="0 0 33 33" fill="none" xmlns="http://www.w3.org/2000/svg">
<path d="M22.2307 3.23077H10.2307C8.37481 3.23276 6.59548 3.97089 5.28316 5.28322C3.97083 6.59554 3.2327 8.37487 3.23071 10.2308V22.2308C3.2327 24.0867 3.97083 25.866 5.28316 27.1783C6.59548 28.4907 8.37481 29.2288 10.2307 29.2308H22.2307C24.0866 29.2288 25.8659 28.4907 27.1783 27.1783C28.4906 25.866 29.2287 24.0867 29.2307 22.2308V10.2308C29.2287 8.37487 28.4906 6.59554 27.1783 5.28322C25.8659 3.97089 24.0866 3.23276 22.2307 3.23077ZM16.2307 22.2308C15.044 22.2308 13.884 21.8789 12.8973 21.2196C11.9106 20.5603 11.1416 19.6232 10.6874 18.5269C10.2333 17.4305 10.1145 16.2241 10.346 15.0602C10.5775 13.8963 11.149 12.8272 11.9881 11.9881C12.8272 11.149 13.8963 10.5776 15.0602 10.3461C16.2241 10.1146 17.4305 10.2334 18.5268 10.6875C19.6232 11.1416 20.5602 11.9107 21.2195 12.8974C21.8788 13.884 22.2307 15.0441 22.2307 16.2308C22.2291 17.8216 21.5964 19.3467 20.4715 20.4716C19.3467 21.5964 17.8215 22.2291 16.2307 22.2308ZM23.7307 10.2308C23.434 10.2308 23.144 10.1428 22.8974 9.97798C22.6507 9.81316 22.4584 9.57889 22.3449 9.3048C22.2314 9.03071 22.2017 8.72911 22.2595 8.43814C22.3174 8.14717 22.4603 7.87989 22.6701 7.67011C22.8798 7.46033 23.1471 7.31747 23.4381 7.2596C23.729 7.20172 24.0306 7.23142 24.3047 7.34495C24.5788 7.45849 24.8131 7.65074 24.9779 7.89742C25.1427 8.14409 25.2307 8.4341 25.2307 8.73077C25.2307 9.1286 25.0727 9.51013 24.7914 9.79143C24.5101 10.0727 24.1285 10.2308 23.7307 10.2308ZM20.2307 16.2308C20.2307 17.0219 19.9961 17.7953 19.5566 18.4531C19.1171 19.1109 18.4924 19.6235 17.7614 19.9263C17.0305 20.229 16.2263 20.3083 15.4504 20.1539C14.6744 19.9996 13.9617 19.6186 13.4023 19.0592C12.8429 18.4998 12.4619 17.7871 12.3076 17.0111C12.1532 16.2352 12.2324 15.4309 12.5352 14.7C12.8379 13.9691 13.3506 13.3444 14.0084 12.9049C14.6662 12.4654 15.4396 12.2308 16.2307 12.2308C17.2916 12.2308 18.309 12.6522 19.0591 13.4023C19.8093 14.1525 20.2307 15.1699 20.2307 16.2308Z" fill="black"/>
</svg>
