<svg width="32" height="33" viewBox="0 0 32 33" fill="none" xmlns="http://www.w3.org/2000/svg">
<path d="M16 9.38464C15.11 9.38464 14.24 9.64856 13.4999 10.143C12.7599 10.6375 12.1831 11.3403 11.8425 12.1626C11.5019 12.9848 11.4128 13.8896 11.5865 14.7626C11.7601 15.6355 12.1887 16.4373 12.818 17.0666C13.4474 17.696 14.2492 18.1245 15.1221 18.2982C15.995 18.4718 16.8998 18.3827 17.7221 18.0421C18.5443 17.7015 19.2471 17.1247 19.7416 16.3847C20.2361 15.6447 20.5 14.7747 20.5 13.8846C20.5 12.6912 20.0259 11.5466 19.182 10.7027C18.3381 9.85875 17.1935 9.38464 16 9.38464ZM16 17.3846C15.3078 17.3846 14.6311 17.1794 14.0555 16.7948C13.4799 16.4102 13.0313 15.8636 12.7664 15.224C12.5015 14.5845 12.4322 13.8808 12.5673 13.2018C12.7023 12.5229 13.0356 11.8993 13.5251 11.4098C14.0146 10.9203 14.6382 10.5869 15.3172 10.4519C15.9961 10.3168 16.6999 10.3862 17.3394 10.6511C17.9789 10.916 18.5256 11.3646 18.9101 11.9401C19.2947 12.5157 19.5 13.1924 19.5 13.8846C19.5 14.3443 19.4095 14.7994 19.2336 15.224C19.0577 15.6487 18.7999 16.0345 18.4749 16.3595C18.1499 16.6845 17.764 16.9423 17.3394 17.1182C16.9148 17.2941 16.4596 17.3846 16 17.3846ZM16 3.38464C13.2161 3.38762 10.5472 4.49482 8.57867 6.46331C6.61018 8.4318 5.50298 11.1008 5.5 13.8846C5.5 17.6871 7.27125 21.7334 10.625 25.5871C12.1422 27.3403 13.8498 28.9192 15.7163 30.2946C15.8002 30.3533 15.9001 30.3847 16.0025 30.3847C16.1049 30.3847 16.2048 30.3533 16.2887 30.2946C18.1535 28.9189 19.8594 27.34 21.375 25.5871C24.7262 21.7334 26.5 17.6871 26.5 13.8846C26.497 11.1008 25.3898 8.4318 23.4213 6.46331C21.4528 4.49482 18.7839 3.38762 16 3.38464ZM20.6375 24.9134C19.2406 26.5132 17.687 27.9693 16 29.2596C14.3128 27.9677 12.7592 26.51 11.3625 24.9084C9.14375 22.3596 6.5 18.3721 6.5 13.8846C6.5 11.3651 7.50089 8.94872 9.28249 7.16713C11.0641 5.38553 13.4804 4.38464 16 4.38464C18.5196 4.38464 20.9359 5.38553 22.7175 7.16713C24.4991 8.94872 25.5 11.3651 25.5 13.8846C25.5 18.3721 22.8563 22.3596 20.6375 24.9134Z" fill="black"/>
</svg>
