<svg width="33" height="33" viewBox="0 0 33 33" fill="none" xmlns="http://www.w3.org/2000/svg">
<path d="M19.2263 18.5384L22.1013 19.9734C21.965 20.6544 21.5967 21.2669 21.0592 21.7067C20.5217 22.1464 19.8483 22.386 19.1538 22.3847C16.7677 22.382 14.48 21.4329 12.7928 19.7457C11.1055 18.0584 10.1565 15.7708 10.1538 13.3847C10.1536 12.6911 10.3938 12.0188 10.8334 11.4823C11.273 10.9458 11.8849 10.5783 12.5651 10.4422L14.0001 13.3172L12.7788 15.1347C12.6875 15.2715 12.6315 15.4288 12.6156 15.5926C12.5996 15.7563 12.6244 15.9215 12.6876 16.0734C13.403 17.7739 14.7558 19.1267 16.4563 19.8422C16.6087 19.9081 16.7751 19.9352 16.9405 19.9208C17.1059 19.9064 17.2651 19.851 17.4038 19.7597L19.2263 18.5384ZM29.1538 16.3847C29.1543 18.6291 28.5737 20.8354 27.4685 22.7888C26.3633 24.7423 24.7712 26.3763 22.8472 27.5319C20.9231 28.6875 18.7327 29.3253 16.489 29.3832C14.2453 29.441 12.0249 28.917 10.0438 27.8622L5.78756 29.2809C5.43517 29.3984 5.05701 29.4155 4.69547 29.3302C4.33393 29.2448 4.00329 29.0605 3.74062 28.7978C3.47795 28.5352 3.29363 28.2045 3.20831 27.843C3.12298 27.4815 3.14004 27.1033 3.25756 26.7509L4.67631 22.4947C3.74899 20.7512 3.23105 18.8194 3.16181 16.8459C3.09256 14.8723 3.47382 12.909 4.27665 11.1048C5.07948 9.30065 6.28277 7.70308 7.79521 6.43339C9.30764 5.1637 11.0894 4.25525 13.0054 3.777C14.9213 3.29874 16.9211 3.26326 18.8528 3.67324C20.7845 4.08322 22.5974 4.92788 24.1539 6.14311C25.7104 7.35835 26.9697 8.91222 27.836 10.6868C28.7023 12.4613 29.153 14.4099 29.1538 16.3847ZM24.1538 19.3847C24.1539 19.1989 24.1023 19.0167 24.0047 18.8586C23.9071 18.7006 23.7674 18.5728 23.6013 18.4897L19.6013 16.4897C19.4439 16.4112 19.2685 16.3757 19.0929 16.3866C18.9173 16.3976 18.7478 16.4547 18.6013 16.5522L16.7651 17.7772C15.9221 17.3138 15.2284 16.6201 14.7651 15.7772L15.9901 13.9409C16.0875 13.7944 16.1446 13.6249 16.1556 13.4493C16.1666 13.2737 16.131 13.0984 16.0526 12.9409L14.0526 8.9409C13.9697 8.77349 13.8415 8.63265 13.6827 8.53433C13.5238 8.43602 13.3406 8.38417 13.1538 8.38465C11.8277 8.38465 10.556 8.91144 9.61827 9.84912C8.68059 10.7868 8.15381 12.0586 8.15381 13.3847C8.15712 16.301 9.3171 19.097 11.3793 21.1592C13.4415 23.2214 16.2374 24.3813 19.1538 24.3847C19.8104 24.3847 20.4606 24.2553 21.0672 24.004C21.6739 23.7528 22.225 23.3845 22.6893 22.9202C23.1536 22.4559 23.5219 21.9047 23.7732 21.2981C24.0245 20.6914 24.1538 20.0413 24.1538 19.3847Z" fill="black"/>
</svg>
